<svg width="4714" height="1405" viewBox="0 0 4714 1405" fill="none" xmlns="http://www.w3.org/2000/svg">
<path d="M1 468.3L451 1H684.65V165.42L1 823.11V468.3Z" fill="black"/>
<path d="M1 961.57L970.23 1H1238.5V156.77L286.58 1074.07H1V961.57Z" fill="black"/>
<path d="M1044.23 440.74L1446.61 1H1699.72V129.21L1284.36 537.53H1044.23V440.74Z" fill="black"/>
<path d="M946.883 966.43L1900.91 1H2167V168.15L2089.12 233.05L2335.74 447.23V577.03H2089.12L1913.89 412.05L1829.52 483.71L2296.8 966.43L2303.29 1074.07H2011.24L1641.31 687.36L1238.5 1074.07H946.883V966.43Z" fill="black" stroke="black" stroke-miterlimit="10"/>
<path d="M2335.74 233.05H2627.79L2796.54 412.05L3198.92 1H3471.5V142.19L3075.61 537.53H2903.62L3302.76 953.45V1074.07H3056.14L2335.74 343.38V233.05Z" fill="black" stroke="black" stroke-miterlimit="10"/>
<path d="M2335.74 771.73H2575.87L2770.57 972.92V1074.07H2517.46L2335.74 875.57V771.73Z" fill="black" stroke="black" stroke-miterlimit="10"/>
<path d="M3319.74 749.551H3566.37L3769.74 965.901V1074.07H3497.14L3319.74 875.031V749.551Z" fill="black" stroke="black" stroke-miterlimit="10"/>
<path d="M3527.43 1H3794.26L4713 922.9V1074.07H4462.04L3527.43 126.48V1Z" fill="black" stroke="black" stroke-miterlimit="10"/>
<path d="M4010.6 133.69V1H4287.52L4679.83 413.5V537.53H4411.56L4010.6 133.69Z" fill="black" stroke="black" stroke-miterlimit="10"/>
<path d="M4030.06 993.311C4069.89 993.311 4102.18 961.021 4102.18 921.19C4102.18 881.36 4069.89 849.07 4030.06 849.07C3990.23 849.07 3957.94 881.36 3957.94 921.19C3957.94 961.021 3990.23 993.311 4030.06 993.311Z" fill="black" stroke="black" stroke-miterlimit="10"/>
<path d="M624.803 1071.19C665.827 1071.19 699.083 1037.93 699.083 996.911C699.083 955.887 665.827 922.631 624.803 922.631C583.78 922.631 550.523 955.887 550.523 996.911C550.523 1037.93 583.78 1071.19 624.803 1071.19Z" fill="black" stroke="black" stroke-miterlimit="10"/>
<path d="M2253.88 771.73C2294.91 771.73 2328.16 738.473 2328.16 697.45C2328.16 656.426 2294.91 623.17 2253.88 623.17C2212.86 623.17 2179.6 656.426 2179.6 697.45C2179.6 738.473 2212.86 771.73 2253.88 771.73Z" fill="black" stroke="black" stroke-miterlimit="10"/>
<path d="M1 1244.26H2020.23V1353.88L1956.76 1402.92H1V1244.26Z" fill="black" stroke="black" stroke-miterlimit="10"/>
<path d="M2121.19 1244.26H2300.03L2121.19 1402.92V1244.26Z" fill="black" stroke="black" stroke-miterlimit="10"/>
<path d="M2271.19 1402.92H2351.96L2487.53 1258.68H2409.65L2271.19 1402.92Z" fill="black" stroke="black" stroke-miterlimit="10"/>
<path d="M2474.71 1402.92H2555.48L2691.05 1258.68H2613.17L2474.71 1402.92Z" fill="black" stroke="black" stroke-miterlimit="10"/>
<path d="M2669.26 1402.92H2796.18V1270.22L2669.26 1402.92Z" fill="black" stroke="black" stroke-miterlimit="10"/>
</svg>
