<svg width="2295" height="6187" viewBox="0 0 2295 6187" fill="none" xmlns="http://www.w3.org/2000/svg">
<path d="M2293.51 2295.51L920.63 922.631L516.835 922.631" stroke="#f0f8ff" stroke-width="3" stroke-miterlimit="10"/>
<path d="M1538.92 1540.93C1468.26 1470.28 1329.45 1356.7 1248.68 1356.7L516.816 1356.7" stroke="#f0f8ff" stroke-width="3" stroke-miterlimit="10"/>
<path d="M890.338 1326.4L890.338 1448.82" stroke="#f0f8ff" stroke-width="3" stroke-miterlimit="10"/>
<path d="M839.864 1387.61L945.857 1387.61" stroke="#f0f8ff" stroke-width="3" stroke-miterlimit="10"/>
<path d="M971.105 574.354L971.105 1225.46L799.481 1053.85L799.481 412.84L971.105 574.354Z" fill="#f0f8ff" stroke="#f0f8ff" stroke-width="3" stroke-miterlimit="10"/>
<path d="M1145.23 1399.6L799.479 1053.85" stroke="#f0f8ff" stroke-width="3" stroke-miterlimit="10"/>
<path d="M1485.92 4304.35L965.211 3784.47L794.434 3784.47L794.434 3639.81L1135.97 3639.81" stroke="#f0f8ff" stroke-width="3" stroke-miterlimit="10"/>
<path d="M1140.19 3959.18L794.434 3959.18L794.434 4132.75L1027.88 4132.75L1485.92 4571.86" stroke="#f0f8ff" stroke-width="3" stroke-miterlimit="10"/>
<path d="M1206.89 4304.35L890.338 4304.35L627.875 4046.93L627.875 3136.27L563.732 3071.34L563.732 179.219L799.48 412.839L395.704 3.99995L395.704 2901.2L799.48 3310.02L799.48 3471.53L966.04 3471.53L1485.92 3986.37" stroke="#f0f8ff" stroke-width="3" stroke-miterlimit="10"/>
<path d="M794.434 3959.18L794.434 4132.75L1027.88 4132.75" stroke="#f0f8ff" stroke-width="3" stroke-miterlimit="10"/>
<path d="M794.434 3784.47L794.434 3639.81L1135.97 3639.81" stroke="#f0f8ff" stroke-width="3" stroke-miterlimit="10"/>
<path d="M965.211 3784.48L794.434 3784.48" stroke="#f0f8ff" stroke-width="3" stroke-miterlimit="10"/>
<path d="M799.479 3310.02L799.479 3471.53L966.039 3471.53" stroke="#f0f8ff" stroke-width="3" stroke-miterlimit="10"/>
<path d="M1206.89 4304.35L890.338 4304.35" stroke="#f0f8ff" stroke-width="3" stroke-miterlimit="10"/>
<path d="M890.338 4304.35L627.875 4046.93" stroke="#f0f8ff" stroke-width="3" stroke-miterlimit="10"/>
<path d="M627.875 4046.94L627.875 3136.27" stroke="#f0f8ff" stroke-width="3" stroke-miterlimit="10"/>
<path d="M1027.88 4132.75L1206.89 4304.35L1485.92 4571.86" stroke="#f0f8ff" stroke-width="3" stroke-miterlimit="10"/>
<path d="M1027.88 4132.75L1206.89 4304.35" stroke="#f0f8ff" stroke-width="3" stroke-miterlimit="10"/>
<path d="M966.04 3471.54L1135.97 3639.81L1485.92 3986.37" stroke="#f0f8ff" stroke-width="3" stroke-miterlimit="10"/>
<path d="M966.04 3471.54L1135.97 3639.81" stroke="#f0f8ff" stroke-width="3" stroke-miterlimit="10"/>
<path d="M1485.92 4304.36L1140.19 3959.19L965.211 3784.48" stroke="#f0f8ff" stroke-width="3" stroke-miterlimit="10"/>
<path d="M965.21 3784.48L1140.19 3959.19L794.433 3959.19" stroke="#f0f8ff" stroke-width="3" stroke-miterlimit="10"/>
<path d="M395.704 2901.2L563.732 3071.33L627.876 3136.27L799.48 3310.02" fill="#f0f8ff"/>
<path d="M395.704 2901.2L563.732 3071.33L627.876 3136.27L799.48 3310.02" stroke="#f0f8ff" stroke-width="3" stroke-miterlimit="10"/>
<path d="M627.876 3136.27L799.48 3310.02" stroke="#f0f8ff" stroke-width="3" stroke-miterlimit="10"/>
<path d="M794.434 3959.19L794.434 4132.75L1027.88 4132.75L1206.89 4304.35L890.338 4304.35L627.875 4046.94L627.875 3136.27L799.48 3310.02L799.48 3471.54L966.04 3471.54L1135.97 3639.81L794.434 3639.81L794.434 3784.48L965.21 3784.48L1140.19 3959.19" fill="#f0f8ff"/>
<path d="M794.434 3959.19L794.434 4132.75L1027.88 4132.75L1206.89 4304.35L890.338 4304.35L627.875 4046.94L627.875 3136.27L799.48 3310.02L799.48 3471.54L966.04 3471.54L1135.97 3639.81L794.434 3639.81L794.434 3784.48L965.21 3784.48L1140.19 3959.19" stroke="#f0f8ff" stroke-width="3" stroke-miterlimit="10"/>
<path d="M395.704 2901.2L563.732 3071.33" stroke="#f0f8ff" stroke-width="3" stroke-miterlimit="10"/>
<path d="M395.703 4L395.703 2901.2" stroke="#f0f8ff" stroke-width="3" stroke-miterlimit="10"/>
<path d="M799.48 412.839L566.274 176.715L395.704 3.99998" fill="#f0f8ff"/>
<path d="M799.48 412.839L566.274 176.715L395.704 3.99998" stroke="#f0f8ff" stroke-width="3" stroke-miterlimit="10"/>
<path d="M563.732 3071.34L563.732 179.22" stroke="#f0f8ff" stroke-width="3" stroke-miterlimit="10"/>
<path d="M563.732 179.22L563.732 3071.34L395.703 2901.2L395.704 3.99999L566.273 176.715" fill="#f0f8ff"/>
<path d="M563.732 179.22L563.732 3071.34L395.703 2901.2L395.704 3.99999L566.273 176.715" stroke="#f0f8ff" stroke-width="3" stroke-miterlimit="10"/>
<path d="M2216.11 4677.87L1509.47 3959.18C1509.47 3959.18 908.843 4558.42 863.414 4603.85C817.985 4649.28 749.004 4647.6 695.16 4647.6C641.315 4647.6 506.724 4600.5 506.724 4523.1L506.724 3784.51C506.724 3698.7 594.212 3570.85 688.42 3570.85" stroke="#f0f8ff" stroke-width="3" stroke-miterlimit="10"/>
<path d="M917.371 3516.97C917.371 3516.97 572.108 3181.46 526.924 3136.27C481.722 3091.07 338.489 3105.6 291.384 3105.6C244.28 3105.6 143.331 3177.11 113.039 3241.04C82.747 3304.98 65.9347 3352.08 65.9347 3390.79L65.9347 5155.68L506.743 5155.68L506.743 4523.08" stroke="#f0f8ff" stroke-width="3" stroke-miterlimit="10"/>
<path d="M1942.58 4399.65C1942.58 4399.65 1386.67 4962.19 1331.15 5017.71C1275.63 5073.23 1209.83 5095.11 1117.39 5085.02C1024.95 5074.93 956.908 5023.08 911.16 4977.35C865.411 4931.6 506.745 4571.88 506.745 4571.88" stroke="#f0f8ff" stroke-width="3" stroke-miterlimit="10"/>
<path d="M1485.92 4980.7L1206.87 4698.06C1206.87 4698.06 1021.56 4883.12 991.267 4913.41C960.975 4943.71 881.903 5009.32 819.662 4947.06C757.403 4884.8 959.299 5083.34 1001.36 5125.4C1043.42 5167.46 1098.49 5150.24 1146.87 5101.85C1195.25 5053.47 1377.25 4870.64 1377.25 4870.64" stroke="#f0f8ff" stroke-width="3" stroke-miterlimit="10"/>
<path d="M819.68 4947.06C757.42 4884.8 959.318 5083.35 1001.38 5125.41C1043.44 5167.47 1098.5 5150.24 1146.89 5101.86C1195.27 5053.47 1377.27 4870.64 1377.27 4870.64" stroke="#f0f8ff" stroke-width="3" stroke-miterlimit="10"/>
<path d="M1206.89 4698.06C1206.89 4698.06 1021.58 4883.12 991.286 4913.41C960.993 4943.71 881.922 5009.32 819.681 4947.06" stroke="#f0f8ff" stroke-width="3" stroke-miterlimit="10"/>
<path d="M1485.92 4980.7L1377.27 4870.64L1206.89 4698.06" stroke="#f0f8ff" stroke-width="3" stroke-miterlimit="10"/>
<path d="M1377.27 4870.64L1206.89 4698.06" stroke="#f0f8ff" stroke-width="3" stroke-miterlimit="10"/>
<path d="M819.68 4947.06C757.42 4884.8 959.318 5083.34 1001.38 5125.4C1043.44 5167.46 1098.5 5150.24 1146.89 5101.85C1195.27 5053.47 1377.27 4870.64 1377.27 4870.64L1206.89 4698.06C1206.89 4698.06 1021.58 4883.12 991.285 4913.41C960.993 4943.71 881.921 5009.32 819.68 4947.06Z" fill="#f0f8ff" stroke="#f0f8ff" stroke-width="3" stroke-miterlimit="10"/>
<path d="M991.286 4533.17C991.286 4533.17 824.293 4382.16 794.434 4352.3C740.176 4298.04 627.875 4341.36 627.875 4425.48L627.875 5909.4C627.875 5963.24 823.032 6134.85 849.955 6161.77C876.877 6188.69 957.624 6195.41 991.286 6161.77C1024.93 6128.13 1167.94 6018.76 1189.81 5996.88C1211.69 5975.01 1206.89 5953.13 1206.89 5912.77L1206.89 5562.82C1206.89 5512.34 1166.26 5478.7 1125.88 5438.32C1085.5 5397.93 1035.02 5344.11 1035.02 5344.11L1035.02 5788.27C1035.02 5811.82 1019.88 5820.23 991.268 5848.83C962.67 5877.43 854.982 5954.83 834.799 5975.01C814.617 5995.19 796.938 6005.3 796.938 5985.1L796.938 4599.59C796.938 4546.59 887.796 4481.81 991.268 4533.13L991.286 4533.17Z" fill="#f0f8ff" stroke="#f0f8ff" stroke-width="3" stroke-miterlimit="10"/>
<path d="M1206.89 5562.84C1206.89 5512.37 1166.26 5478.73 1125.88 5438.34C1085.49 5397.96 865.091 5169.99 865.091 5169.99" stroke="#f0f8ff" stroke-width="3" stroke-miterlimit="10"/>
<path d="M2293.51 3103.38C2293.51 3103.38 1094.14 1877.2 1027.88 1810.95C961.634 1744.7 900.448 1694.86 799.499 1694.86L516.854 1694.86" stroke="#f0f8ff" stroke-width="3" stroke-miterlimit="10"/>
<path d="M1485.92 2278.09C1413.96 2206.14 1324.41 2139.04 1225.98 2139.04L542.063 2139.04" stroke="#f0f8ff" stroke-width="3" stroke-miterlimit="10"/>
<path d="M2216.11 3693.64C2216.11 3693.64 1231.02 2686.69 1167.94 2623.6C1104.85 2560.52 1031.65 2547.9 940.81 2547.9L516.834 2547.9" stroke="#f0f8ff" stroke-width="3" stroke-miterlimit="10"/>
<path d="M1692.52 3158.59C1619.53 3085.6 1516.21 2986.26 1405.17 2986.26L759.116 2986.26C688.459 2986.26 597.602 2911.27 516.835 2850.7" stroke="#f0f8ff" stroke-width="3" stroke-miterlimit="10"/>
<path d="M446.18 2759.87C446.18 2759.87 198.854 2517.59 158.471 2477.22C118.087 2436.84 65.9378 2409.33 65.9378 2208.58L65.9379 99.9204" stroke="#f0f8ff" stroke-width="3" stroke-miterlimit="10"/>
<path d="M2.00044 39.3369L395.703 433.021" stroke="#f0f8ff" stroke-width="3" stroke-miterlimit="10"/>
</svg>
