<svg width="1424" height="2278" viewBox="0 0 1424 2278" fill="none" xmlns="http://www.w3.org/2000/svg">
  <g transform="scale(-1, 1) translate(-1424, 0)">
    <path d="M1423.88 1335.6L1402.41 1341.74C1390.13 1642.45 1276.59 1792.82 1089.42 1918.64C902.242 2044.46 705.86 2026.04 635.278 2016.84C564.695 2007.64 491.06 1992.29 368.313 1918.64C245.567 1845 190.329 1752.93 190.329 1752.93L214.875 1737.58C214.875 1737.58 362.167 1958.51 613.786 1989.2C865.405 2019.89 951.332 1964.66 1074.06 1894.07C1196.81 1823.49 1273.51 1713.04 1325.68 1599.49C1377.84 1485.96 1368.64 1344.8 1368.64 1344.8H1328.75C1328.75 1344.8 1328.75 1228.2 1285.79 1114.65C1242.82 1001.12 1156.92 924.396 1156.92 924.396L1184.53 890.65C1110.9 813.941 889.951 672.776 635.259 712.667C380.567 752.558 278.359 893.704 278.359 893.704C278.359 893.704 383.639 991.905 405.131 1016.45C426.603 1041 405.092 1053.31 392.8 1041C380.508 1028.68 234.829 887.577 234.829 887.577C279.33 841.54 438.895 697.322 635.278 681.976C831.66 666.63 905.315 700.394 997.37 734.139C1089.42 767.884 1216.95 875.285 1216.95 875.285V856.866L1172.28 816.976L1216.95 721.848L1009.64 596.029L955.943 694.229L929.861 681.957L1068.52 457.956L856.205 326.01L669.022 651.265H635.278L955.943 138.828L730.892 0.736206L248.64 820.029L227.167 798.557C73.7492 918.23 0.09375 1169.85 0.09375 1169.85L46.1307 1185.19C18.5123 1249.63 33.857 1467.5 33.857 1467.5L18.512 1470.58C21.585 1504.32 24.6574 1565.71 55.3294 1639.34C86.0208 1712.98 138.186 1786.63 138.186 1786.63L165.804 1765.16L236.387 1860.29L190.35 1952.34L399.003 2078.16L454.241 1992.25L469.586 2007.6L395.951 2127.27L619.952 2256.15L730.425 2041.34L764.169 2047.49L705.86 2151.82L920.66 2277.64L1037.26 2072.04C1080.22 2056.69 1166.13 2010.67 1245.92 1943.16C1325.7 1875.65 1399.33 1768.25 1399.33 1768.25L1325.7 1719.16C1341.04 1694.62 1371.73 1636.31 1399.33 1541.18C1426.95 1446.05 1423.88 1335.58 1423.88 1335.58V1335.6ZM699.695 804.742C699.695 804.742 868.459 789.396 997.351 869.178C1126.22 948.96 1175.33 1034.89 1175.33 1034.89H1206.03C1206.03 1034.89 1270.46 1123.87 1285.81 1222.07H1261.26C1261.26 1222.07 1291.95 1360.16 1261.26 1485.96C1230.57 1611.78 1113.97 1746.78 1113.97 1746.78L1037.26 1667C1037.26 1667 1132.39 1596.42 1156.93 1439.93C1181.48 1283.43 1172.28 1160.69 1021.92 1016.47C871.551 872.251 699.714 905.996 699.714 905.996V804.742H699.695ZM724.803 1002.25C917.684 1002.25 1074.06 1158.63 1074.06 1351.51C1074.06 1544.39 917.684 1700.76 724.803 1700.76C531.921 1700.76 375.548 1544.39 375.548 1351.51C375.548 1158.63 531.921 1002.25 724.803 1002.25ZM144.292 1749.85C60.2117 1623.43 43.0385 1504.36 43.0385 1504.36L199.53 1470.62C171.911 1335.6 199.53 1200.58 199.53 1200.58L107.475 1185.23C67.5836 1286.49 89.0565 1458.32 89.0565 1458.32H67.5841C67.5841 1458.32 57.2363 1419.58 57.2363 1318.33C57.2363 1217.07 88.2967 1128.46 88.2967 1128.46L210.265 1167.59C222.499 1126.5 239.42 1093.18 239.42 1093.18L337.621 1139.22C262.721 1250.74 279.311 1424.6 325.348 1525.85C371.385 1627.11 414.33 1670.07 509.458 1731.45C604.585 1792.82 712.026 1798.96 712.026 1798.96V1838.86C610.81 1841.93 497.186 1792.82 497.186 1792.82L484.912 1838.86C331.494 1768.27 276.259 1651.67 276.259 1651.67L144.311 1749.87L144.292 1749.85Z" fill="#0B1215"/>
  </g>
</svg>
